PathFileType	4	(X/Y/Z)	C:/Users/opensim2020/Desktop/walking_exp_matlab/subject03_walking07_straight_01.trc																																																																																																																																								
DataRate	CameraRate	NumFrames	NumMarkers	Units	OrigDataRate	OrigDataStartFrame	OrigNumFrames																																																																																																																																				
100	100	9	46	mm	100	820	310																																																																																																																																				
Frame#	Time	LFHD			RFHD			LBHD			RBHD			C7			T10			CLAV			STRN			RBAK			LSHO			LUPA			LELB			LFRM			LWRA			LWRB			LFIN			RSHO			RUPA			RELB			RFRM			RWRA			RWRB			RFIN			LASI			RASI			LPSI			RPSI			LTHI			LKNE			LTIB			LANK			LHEE			LTOE			RTHI			RKNE			RTIB			RANK			RHEE			RTOE			*39			*40			*41			*42			*43			*44			*45		
		X1	Y1	Z1	X2	Y2	Z2	X3	Y3	Z3	X4	Y4	Z4	X5	Y5	Z5	X6	Y6	Z6	X7	Y7	Z7	X8	Y8	Z8	X9	Y9	Z9	X10	Y10	Z10	X11	Y11	Z11	X12	Y12	Z12	X13	Y13	Z13	X14	Y14	Z14	X15	Y15	Z15	X16	Y16	Z16	X17	Y17	Z17	X18	Y18	Z18	X19	Y19	Z19	X20	Y20	Z20	X21	Y21	Z21	X22	Y22	Z22	X23	Y23	Z23	X24	Y24	Z24	X25	Y25	Z25	X26	Y26	Z26	X27	Y27	Z27	X28	Y28	Z28	X29	Y29	Z29	X30	Y30	Z30	X31	Y31	Z31	X32	Y32	Z32	X33	Y33	Z33	X34	Y34	Z34	X35	Y35	Z35	X36	Y36	Z36	X37	Y37	Z37	X38	Y38	Z38	X39	Y39	Z39	X40	Y40	Z40	X41	Y41	Z41	X42	Y42	Z42	X43	Y43	Z43	X44	Y44	Z44	X45	Y45	Z45	X46	Y46	Z46
																																																																																																																																											
156	1.55	-69.27964	1633.26172	1363.94397	-77.19392	1636.76086	1497.35303	-190.79909	1573.18066	1362.37927	-194.00937	1577.45789	1493.63745	-211.45755	1423.00659	1416.65454	-247.41508	1111.83667	1414.83496	-90.15213	1345.96643	1424.37549	-47.39035	1180.63159	1419.69629	-269.45581	1248.91907	1509.08813	-122.92989	1383.27051	1267.00378	-112.69418	1188.00916	1193.37561	-94.0305	1066.26477	1181.89746	-56.62254	941.61926	1185.97888	-33.57563	825.26563	1217.87195	-45.20825	830.22632	1163.30542	-20.17426	750.60315	1174.01758	-143.94066	1369.46021	1581.35706	-141.78749	1148.29822	1655.53369	-120.57084	1037.75879	1670.21802	-91.81243	903.60065	1672.68774	-51.39457	812.34558	1637.96021	-83.90791	803.73596	1680.69897	-52.68421	735.97284	1671.77234	-79.84062	947.23505	1300.97522	-89.7403	944.5379	1539.44238	-243.93307	973.44818	1347.39172	-248.28877	975.26123	1496.15393	-140.8537	645.76233	1266.23047	-139.66792	468.46796	1308.86719	-194.11478	279.98322	1306.41565	-218.18935	71.55981	1349.74353	-259.50186	37.42323	1385.36047	-66.10075	34.47634	1368.40515	-94.34764	650.02234	1587.7677	-36.01811	479.40262	1568.18506	-157.80106	332.83209	1564.59106	-293.03513	167.19673	1516.58325	-344.6337	161.94673	1460.30444	-201.24942	60.11486	1509.29065	-161.08261	1684.52197	1411.07349	NaN	NaN	NaN	NaN	NaN	NaN	NaN	NaN	NaN	NaN	NaN	NaN	NaN	NaN	NaN	NaN	NaN	NaN
157	1.56	-58.99854	1632.71216	1364.29419	-67.18048	1636.16394	1497.58228	-180.8773	1573.19006	1362.45776	-184.24405	1577.42456	1493.67615	-202.50325	1422.73132	1416.60095	-238.36313	1111.44543	1414.28027	-81.21156	1345.62378	1424.51147	-38.51693	1180.32202	1419.5885	-260.84393	1248.61475	1508.67896	-113.74139	1383.38269	1267.27222	-101.00985	1188.88635	1192.93726	-80.76825	1067.39038	1181.36877	-40.72916	943.58234	1185.86658	-15.46989	827.75024	1217.72583	-26.82453	832.47516	1163.07874	0.21398	753.74261	1173.71643	-135.68474	1369.11365	1581.38403	-135.53242	1147.77722	1655.26306	-115.2584	1037.11877	1670.10986	-87.70781	902.6955	1672.77979	-47.62105	811.08081	1638.58044	-80.79066	802.78265	1680.82166	-50.03923	734.81726	1672.43164	-70.73427	946.70349	1300.42224	-80.43867	944.40479	1538.95471	-234.90654	972.89282	1347.26038	-239.11931	974.93835	1495.94629	-133.83606	645.37744	1266.16394	-134.76851	467.97113	1308.73767	-191.48013	280.08862	1306.34009	-217.95065	71.84232	1349.7583	-259.4263	37.89614	1384.89844	-66.05109	34.57861	1368.12964	-81.63445	650.91547	1587.64685	-20.24151	481.29327	1567.39441	-136.72243	329.95837	1563.68103	-265.67212	159.1933	1515.4259	-317.14694	151.5208	1459.51343	-168.26488	57.46817	1507.67041	-150.46225	1683.8927	1410.7262	NaN	NaN	NaN	NaN	NaN	NaN	NaN	NaN	NaN	NaN	NaN	NaN	NaN	NaN	NaN	NaN	NaN	NaN
158	1.57	-48.81054	1631.89294	1364.48242	-57.05254	1635.4176	1497.87952	-170.93034	1573.17896	1362.53638	-174.59276	1577.40613	1493.6394	-193.53326	1422.29663	1416.52551	-229.31194	1111.11365	1413.82153	-72.2414	1345.20056	1424.69104	-29.597	1179.9032	1419.5636	-252.13843	1248.14722	1508.20825	-104.50923	1383.38245	1267.55823	-89.85782	1189.48999	1192.5365	-67.44106	1068.59705	1180.90442	-24.90712	945.59204	1185.32166	2.57692	830.30951	1217.59656	-8.4614	834.85938	1162.96033	20.44213	756.89728	1173.55457	-127.31508	1368.60059	1581.46533	-129.14444	1147.1438	1655.12378	-110.15474	1036.28503	1669.91357	-83.48235	901.68774	1672.89258	-43.78848	809.72266	1639.18225	-77.56391	801.72479	1680.93237	-47.29738	733.50427	1673.07727	-62.14949	946.0033	1300.13123	-71.16363	944.16071	1538.68127	-225.78442	972.56268	1347.14404	-229.8916	974.44586	1495.76807	-126.44678	644.66205	1266.34265	-130.06654	467.5405	1308.43982	-188.92413	280.20364	1306.29041	-217.54976	72.0713	1349.94641	-259.3934	38.3348	1385.16711	-66.02864	34.51084	1368.15491	-69.1255	651.60492	1587.59473	-5.02156	483.02835	1566.72534	-115.77725	326.96616	1563.00818	-237.47327	150.89482	1514.45337	-289.01755	140.73701	1458.44226	-134.79099	54.96489	1506.23572	-140.07265	1684.12878	1411.38013	NaN	NaN	NaN	NaN	NaN	NaN	NaN	NaN	NaN	NaN	NaN	NaN	NaN	NaN	NaN	NaN	NaN	NaN
159	1.58	-38.42873	1631.21094	1364.88184	-46.90301	1634.56042	1498.27356	-160.98682	1573.18604	1362.68188	-164.84195	1577.26758	1493.76514	-184.25522	1422.0459	1416.64905	-220.13933	1110.58997	1413.36633	-63.1636	1344.61487	1424.80005	-20.61438	1179.38525	1419.53577	-243.83754	1247.58801	1507.81396	-95.3624	1383.27124	1267.81409	-78.88818	1190.08032	1192.19568	-54.36769	1069.55713	1180.14978	-9.20542	947.54602	1184.86975	20.75201	832.95502	1217.48657	9.73906	837.25507	1162.93677	40.42505	759.99341	1173.50098	-118.86487	1367.98279	1581.54517	-122.53638	1146.38293	1654.9856	-104.46882	1035.39185	1669.99951	-79.20083	900.56726	1673.02551	-39.90213	808.25165	1639.66418	-74.3142	800.539	1681.02087	-44.51608	732.06995	1673.61865	-52.95549	945.50507	1299.76477	-61.90739	943.82611	1538.38745	-216.6414	971.8457	1347.05371	-220.68509	973.84772	1495.59705	-120.06594	644.19342	1265.98303	-125.63507	467.15701	1308.20947	-186.43802	280.31247	1306.19226	-217.46402	72.57526	1349.7583	-259.38733	38.77694	1385.22339	-65.91816	34.46965	1368.07861	-56.56957	651.83783	1587.68445	9.62737	484.52289	1565.99683	-94.795	323.83554	1562.35352	-208.64856	142.41679	1513.6084	-259.6113	129.53957	1457.72021	-100.96607	52.45213	1505.10266	-129.59499	1684.07202	1411.89709	NaN	NaN	NaN	NaN	NaN	NaN	NaN	NaN	NaN	NaN	NaN	NaN	NaN	NaN	NaN	NaN	NaN	NaN
160	1.59	-28.10195	1630.25989	1365.22949	-36.69963	1633.57959	1498.63123	-150.97652	1573.15479	1362.82666	-154.96188	1577.03442	1494.0658	-175.0873	1421.40393	1416.69653	-211.08224	1109.89783	1413.00183	-54.07724	1343.90369	1424.98047	-11.54373	1178.75818	1419.57861	-234.7606	1246.52698	1507.06116	-86.18671	1382.95557	1268.07092	-68.02096	1190.41016	1191.95752	-41.57424	1070.37598	1179.40735	6.41109	949.4809	1184.45325	38.92571	835.72351	1217.34424	27.74298	839.55872	1162.83911	60.0498	763.00995	1173.54285	-110.22904	1367.20544	1581.64758	-115.78952	1145.54028	1654.90161	-99.04916	1034.38025	1670.00122	-74.83917	899.34265	1673.13477	-35.93458	806.70386	1640.22815	-71.03677	799.1272	1680.96729	-41.68138	730.5365	1673.87146	-43.7572	944.9035	1299.50024	-52.70081	943.51654	1538.1637	-207.82393	971.40356	1347.1615	-211.58864	973.13348	1495.5293	-113.47792	643.66016	1266.10657	-121.13728	466.63571	1307.98694	-183.87633	280.47043	1306.11633	-217.10602	72.85859	1349.85522	-259.31262	39.32352	1385.33398	-65.86557	34.47376	1368.04712	-45.19961	652.5033	1587.84863	23.68935	485.8613	1565.28931	-74.11579	320.63425	1561.82361	-179.2166	133.8302	1512.93738	-229.56734	118.57532	1457.13538	-66.88107	50.09567	1504.38599	NaN	NaN	NaN	NaN	NaN	NaN	NaN	NaN	NaN	NaN	NaN	NaN	NaN	NaN	NaN	NaN	NaN	NaN	NaN	NaN	NaN
161	1.6	-17.71833	1629.34082	1365.6969	-26.50469	1632.52527	1499.05847	-140.9814	1573.02234	1363.05334	-145.06769	1576.79614	1494.30469	-165.83713	1420.78699	1416.86682	-201.91653	1109.19556	1412.7821	-44.9608	1343.09253	1425.18921	-2.44558	1178.02576	1419.68567	-225.85149	1245.61121	1506.50891	-77.06124	1382.54675	1268.35083	-56.84176	1190.69775	1191.55859	-28.65051	1071.40588	1178.90771	21.74469	951.34283	1183.97498	57.00704	838.51093	1217.24353	45.5367	841.86432	1162.76221	79.44852	766.01471	1173.7124	-101.52869	1366.30908	1581.83142	-108.85194	1144.56226	1654.79395	-93.09354	1033.28015	1670.06641	-70.24893	898.0899	1673.29553	-31.91998	805.11841	1640.54651	-67.49256	797.9101	1681.20996	-38.84625	728.85596	1674.04138	-35.68177	943.79834	1299.66663	-43.43078	943.16217	1537.96375	-198.55078	970.63794	1347.1814	-202.46107	972.29431	1495.48059	-107.24534	643.15887	1266.08618	-116.46036	466.00406	1307.85315	-181.27852	280.55566	1306.09265	-216.98402	73.33859	1349.70117	-259.41284	39.99376	1385.47888	-65.80776	34.42559	1368.005	-33.80701	653.03577	1588.1106	37.22361	486.95682	1564.6217	-53.54263	317.38092	1561.3894	-149.15811	125.44015	1512.43799	-199.03571	107.54167	1456.78174	-32.51708	48.03549	1504.12476	NaN	NaN	NaN	-111.32472	1680.35339	1411.76208	NaN	NaN	NaN	NaN	NaN	NaN	NaN	NaN	NaN	NaN	NaN	NaN	NaN	NaN	NaN
162	1.61	-7.23531	1628.23267	1366.09741	-16.33807	1631.32874	1499.46338	-130.9684	1572.81531	1363.33594	-135.1954	1576.44153	1494.63684	-156.44145	1420.07263	1416.99146	-192.68633	1108.37048	1412.6355	-35.74311	1342.24426	1425.39124	6.66526	1177.12927	1419.75171	-217.09799	1244.69543	1506.14722	-67.77993	1382.00879	1268.60608	-45.9176	1190.90625	1191.28967	-16.13822	1071.90552	1178.18054	36.99899	953.2287	1183.55054	74.9366	841.29108	1217.06213	63.06244	844.12079	1162.68274	98.60413	768.9621	1173.97363	-92.77435	1365.31897	1582.00891	-101.90336	1143.49048	1654.64417	-87.08249	1032.13147	1670.19727	-65.62247	896.59863	1673.29395	-27.82171	803.40784	1640.89551	-63.88304	796.43518	1681.12073	-35.7107	727.13165	1673.96863	-26.42655	943.01276	1299.50537	-34.11532	942.67432	1537.85791	-189.79474	969.96027	1347.47583	-193.25763	971.3656	1495.55603	-100.66558	642.63275	1266.59863	-111.6381	465.63318	1307.90771	-178.74303	280.73331	1306.02087	-216.76996	73.84179	1349.67004	-259.17984	40.64915	1385.58569	-65.76167	34.29262	1368.06116	-22.20527	653.26154	1588.43347	50.21359	487.77393	1564.01331	-33.17319	314.05365	1561.03333	-118.52074	117.19003	1512.17358	-166.92316	96.43764	1456.20386	1.89396	46.51514	1504.54053	-97.24402	1683.29822	1413.02185	NaN	NaN	NaN	NaN	NaN	NaN	NaN	NaN	NaN	NaN	NaN	NaN	NaN	NaN	NaN	NaN	NaN	NaN
163	1.62	3.11104	1627.03748	1366.61206	-5.95049	1630.12708	1499.99756	-120.96705	1572.4425	1363.70996	-125.24824	1576.00378	1494.94604	-146.92114	1419.29028	1417.18335	-183.47923	1107.47888	1412.69189	-26.40127	1341.26807	1425.65747	15.86581	1176.16418	1419.92993	-207.70978	1243.56543	1505.60266	-58.53675	1381.33325	1268.89343	-35.15897	1190.89233	1191.04749	-3.66825	1072.39294	1177.59863	51.94835	954.93433	1183.07837	92.75588	844.16187	1216.96936	80.25332	846.26404	1162.73743	117.47269	771.89948	1174.31287	-83.87217	1364.1792	1582.19592	-94.48696	1142.40161	1654.78699	-80.93377	1030.89502	1670.23706	-60.6858	895.2702	1673.40857	-23.63803	801.68512	1640.9884	-59.74335	794.90704	1680.93762	-32.59715	725.29059	1673.80029	-18.02406	942.03912	1299.42346	-24.71942	942.04089	1537.83521	-180.46338	968.96338	1347.61951	-184.17505	970.40021	1495.75305	-94.19215	642.15765	1266.71948	-106.99574	465.40314	1307.98364	-176.34273	280.93787	1305.97144	-216.4852	74.37994	1349.63293	-259.13168	41.40552	1385.65344	-65.70629	34.25171	1368.03516	-11.14629	653.02588	1588.8385	62.58908	488.23792	1563.44214	-13.02232	310.78882	1560.85144	-87.39701	109.34754	1512.05737	-134.59946	86.00656	1455.97485	36.8548	45.35847	1504.82568	NaN	NaN	NaN	NaN	NaN	NaN	NaN	NaN	NaN	NaN	NaN	NaN	NaN	NaN	NaN	NaN	NaN	NaN	NaN	NaN	NaN
164	1.63	13.47919	1625.74878	1367.13037	4.35212	1628.79675	1500.5011	-110.9148	1571.94727	1364.078	-115.24639	1575.46484	1495.328	-137.48106	1418.37463	1417.4303	-174.17932	1106.51208	1412.84583	-17.04413	1340.15271	1425.90735	25.08479	1175.0769	1420.04041	-198.67604	1242.54419	1505.37805	-49.15482	1380.57263	1269.16809	-24.32651	1190.75598	1190.91992	8.60946	1072.80029	1177.18774	66.67101	956.55963	1182.78394	110.2636	847.05035	1216.94507	97.24535	848.35461	1162.83276	136.03934	774.82452	1174.71802	-74.85883	1362.97278	1582.44385	-87.11397	1141.24927	1654.89502	-74.58234	1029.56592	1670.28113	-55.61642	893.74011	1673.3772	-19.10391	799.98138	1641.17639	-55.81954	793.44092	1681.04822	-29.18752	723.47552	1673.48206	-9.02959	941.146	1299.42029	-15.23736	941.2442	1537.84949	-171.68729	968.1402	1348.07654	-174.90739	969.25964	1496.04211	-87.44279	641.54358	1266.94604	-102.5352	464.84369	1308.06287	-173.97424	281.22742	1306.06018	-216.06102	75.09294	1349.72644	-259.10803	42.40001	1385.77112	-65.56179	34.31074	1367.85645	0.23471	652.91815	1589.26392	74.41965	488.41913	1562.93909	6.94546	307.54553	1560.68176	-55.85707	101.97464	1512.22498	-101.58794	76.17325	1455.94958	71.87173	44.88403	1505.51575	NaN	NaN	NaN	NaN	NaN	NaN	NaN	NaN	NaN	NaN	NaN	NaN	NaN	NaN	NaN	NaN	NaN	NaN	NaN	NaN	NaN
